<svg width="586" height="89" viewBox="0 0 586 89" fill="none" xmlns="http://www.w3.org/2000/svg">
<path d="M111.081 88.2C104.761 88.2 98.901 87.1 93.501 84.9C88.141 82.66 83.461 79.56 79.461 75.6C75.501 71.64 72.4009 67 70.1609 61.68C67.9609 56.36 66.8609 50.6 66.8609 44.4C66.8609 38.16 67.9609 32.38 70.1609 27.06C72.4009 21.74 75.501 17.1 79.461 13.14C83.461 9.18001 88.141 6.1 93.501 3.9C98.901 1.7 104.761 0.600005 111.081 0.600005C117.361 0.600005 123.181 1.72001 128.541 3.96C133.901 6.2 138.581 9.32 142.581 13.32C146.581 17.32 149.681 21.98 151.881 27.3C154.121 32.58 155.241 38.28 155.241 44.4C155.241 50.6 154.121 56.36 151.881 61.68C149.681 67 146.581 71.64 142.581 75.6C138.581 79.56 133.901 82.66 128.541 84.9C123.181 87.1 117.361 88.2 111.081 88.2ZM111.081 75.48C115.321 75.48 119.261 74.76 122.901 73.32C126.581 71.84 129.781 69.74 132.501 67.02C135.221 64.26 137.341 60.98 138.861 57.18C140.421 53.34 141.201 49.08 141.201 44.4C141.201 38.12 139.861 32.66 137.181 28.02C134.541 23.34 130.941 19.72 126.381 17.16C121.821 14.6 116.721 13.32 111.081 13.32C106.841 13.32 102.881 14.06 99.201 15.54C95.561 16.98 92.361 19.06 89.601 21.78C86.881 24.5 84.741 27.78 83.181 31.62C81.661 35.42 80.9009 39.68 80.9009 44.4C80.9009 50.68 82.241 56.16 84.921 60.84C87.601 65.48 91.201 69.08 95.721 71.64C100.281 74.2 105.401 75.48 111.081 75.48Z" fill="#520380"/>
<path d="M189.568 88.2C183.768 88.2 178.088 87.38 172.528 85.74C167.008 84.06 162.348 81.66 158.548 78.54L165.148 68.28C167.148 70 169.468 71.48 172.108 72.72C174.788 73.96 177.628 74.92 180.628 75.6C183.628 76.24 186.628 76.56 189.628 76.56C195.108 76.56 199.528 75.52 202.888 73.44C206.288 71.36 207.988 68.32 207.988 64.32C207.988 61.32 206.828 58.78 204.508 56.7C202.228 54.62 197.988 52.7 191.788 50.94L183.148 48.42C175.228 46.14 169.448 43.12 165.808 39.36C162.208 35.6 160.408 30.92 160.408 25.32C160.408 21.6 161.148 18.24 162.628 15.24C164.148 12.24 166.268 9.64001 168.988 7.44C171.748 5.24001 174.988 3.56001 178.708 2.4C182.428 1.24001 186.508 0.660008 190.948 0.660008C196.588 0.660008 201.828 1.48001 206.668 3.12001C211.508 4.76 215.508 6.96 218.668 9.72L211.828 19.68C210.108 18.12 208.088 16.78 205.768 15.66C203.488 14.54 201.028 13.68 198.388 13.08C195.748 12.48 193.068 12.18 190.348 12.18C186.988 12.18 184.008 12.68 181.408 13.68C178.848 14.64 176.848 16.04 175.408 17.88C173.968 19.72 173.248 21.96 173.248 24.6C173.248 26.52 173.728 28.2 174.688 29.64C175.648 31.08 177.288 32.4 179.608 33.6C181.968 34.76 185.208 35.94 189.328 37.14L198.448 39.84C206.208 42.12 211.888 45.1 215.488 48.78C219.088 52.42 220.888 57.16 220.888 63C220.888 68 219.648 72.4 217.168 76.2C214.728 79.96 211.168 82.9 206.488 85.02C201.808 87.14 196.168 88.2 189.568 88.2Z" fill="#520380"/>
<path d="M249.919 86.4V14.7H226.279V2.4H286.999V14.7H263.359V86.4H249.919Z" fill="#520380"/>
<path d="M274.057 86.4L306.697 2.4H321.277L354.757 86.4H339.577L331.837 66.36H296.257L288.817 86.4H274.057ZM299.737 54.78H328.237L313.717 18.18L299.737 54.78Z" fill="#520380"/>
<path d="M43.6201 0.400009C50.0199 0.400019 55.5398 1.19953 60.1797 2.79942C64.6074 4.31318 68.498 6.43651 71.8516 9.16759C69.0083 12.4021 66.5921 15.9678 64.6016 19.8639C62.1587 17.8012 59.3654 16.2322 56.2197 15.1598C52.6998 13.9598 48.8199 13.36 44.5801 13.36C39.9001 13.36 35.6799 14.0801 31.9199 15.5201C28.16 16.9601 24.9397 19.0199 22.2598 21.6998C19.6198 24.3398 17.5796 27.56 16.1396 31.36C14.7397 35.1199 14.04 39.3803 14.04 44.1402C14.0401 50.62 15.3004 56.1595 17.8203 60.7594C20.3803 65.3594 23.9801 68.8799 28.6201 71.3199C33.3 73.7198 38.8199 74.9195 45.1797 74.9195C49.4196 74.9195 53.5 74.3001 57.4199 73.0602C60.0956 72.1953 62.6515 70.9722 65.0898 69.3951C67.1362 73.2144 69.6035 76.7068 72.4922 79.8727C69.0157 82.2361 65.1525 84.1063 60.9004 85.4801C55.7404 87.1601 49.94 87.9996 43.5 87.9996C34.78 87.9996 27.1596 86.2002 20.6396 82.6002C14.1198 79.0003 9.04036 73.9198 5.40039 67.36C1.80039 60.76 0 53.0594 0 44.2594C4.88574e-05 37.8598 1.05987 32 3.17969 26.6803C5.33969 21.3203 8.36023 16.6794 12.2402 12.7594C16.16 8.83967 20.78 5.80017 26.0996 3.64024C31.4196 1.48024 37.2601 0.400009 43.6201 0.400009Z" fill="#520380"/>
<path d="M376.248 86.4L352.588 27H365.728L383.448 71.16L397.368 28H410.268L423.288 71.16L442.248 27H454.788L430.128 86.4H416.508L403.428 43.74L389.868 86.4H376.248Z" fill="#520380"/>
<path d="M485.65 88.2C479.25 88.2 473.63 86.9 468.79 84.3C463.95 81.66 460.17 77.98 457.45 73.26C454.77 68.54 453.43 63.06 453.43 56.82C453.43 52.26 454.21 48.06 455.77 44.22C457.33 40.34 459.53 36.98 462.37 34.14C465.21 31.3 468.53 29.1 472.33 27.54C476.17 25.98 480.35 25.2 484.87 25.2C489.79 25.2 494.17 26.08 498.01 27.84C501.85 29.56 505.03 31.98 507.55 35.1C510.11 38.22 511.91 41.88 512.95 46.08C514.03 50.24 514.21 54.76 513.49 59.64H466.09C466.01 63.2 466.79 66.32 468.43 69C470.07 71.64 472.41 73.7 475.45 75.18C478.53 76.66 482.15 77.4 486.31 77.4C489.67 77.4 492.91 76.9 496.03 75.9C499.19 74.86 502.05 73.34 504.61 71.34L509.71 80.82C507.79 82.38 505.47 83.72 502.75 84.84C500.03 85.92 497.19 86.74 494.23 87.3C491.27 87.9 488.41 88.2 485.65 88.2ZM466.87 49.92H500.53C500.41 45.44 498.97 41.92 496.21 39.36C493.49 36.8 489.61 35.52 484.57 35.52C479.69 35.52 475.63 36.8 472.39 39.36C469.19 41.92 467.35 45.44 466.87 49.92Z" fill="#520380"/>
<path d="M556.162 88.2C552.202 88.2 548.622 87.62 545.422 86.46C542.262 85.3 539.522 83.7 537.202 81.66C534.882 79.58 533.002 77.2 531.562 74.52L533.482 71.58V86.4H521.602V0H534.742V40.68L532.042 37.74C534.682 33.9 537.982 30.86 541.942 28.62C545.902 26.34 550.582 25.2 555.982 25.2C561.902 25.2 567.102 26.62 571.582 29.46C576.102 32.26 579.622 36.04 582.142 40.8C584.662 45.56 585.922 50.86 585.922 56.7C585.922 61.22 585.182 65.4 583.702 69.24C582.262 73.08 580.222 76.42 577.582 79.26C574.942 82.06 571.802 84.26 568.162 85.86C564.522 87.42 560.522 88.2 556.162 88.2ZM553.762 76.5C557.402 76.5 560.642 75.7 563.482 74.1C566.362 72.46 568.622 70.16 570.262 67.2C571.902 64.24 572.722 60.74 572.722 56.7C572.722 52.66 571.902 49.16 570.262 46.2C568.662 43.2 566.422 40.9 563.542 39.3C560.702 37.7 557.442 36.9 553.762 36.9C550.082 36.9 546.802 37.7 543.922 39.3C541.082 40.9 538.842 43.2 537.202 46.2C535.562 49.16 534.742 52.66 534.742 56.7C534.742 60.74 535.562 64.24 537.202 67.2C538.842 70.16 541.082 72.46 543.922 74.1C546.802 75.7 550.082 76.5 553.762 76.5Z" fill="#520380"/>
</svg>
